<svg viewBox="0 0 24 24" xmlns="http://www.w3.org/2000/svg"><path d="m11 18h2v3h-2z"/><path d="m11 18h2v8h-2z" transform="matrix(0 1 -1 0 34 10)"/><path d="m20 18h-16a3.00328 3.00328 0 0 1 -3-3v-11a3.00328 3.00328 0 0 1 3-3h16a3.00328 3.00328 0 0 1 3 3v11a3.00328 3.00328 0 0 1 -3 3zm-16-15a1.00067 1.00067 0 0 0 -1 1v11a1.00067 1.00067 0 0 0 1 1h16a1.00067 1.00067 0 0 0 1-1v-11a1.00067 1.00067 0 0 0 -1-1z"/><path d="m16 15-1.914-6.38-1.086 4.38-1.309-3h-.331l-1.36 4-1.157-4.067-.534 1.067h-3.309v-1h2.691l1.309-3 1.068 3.713.572-1.713h1.669l.487.973 1.204-5.973 2 8 .64-2h2.36v1h-1.64z"/></svg>